<svg width="58" height="58" viewBox="0 0 58 58" fill="none" xmlns="http://www.w3.org/2000/svg">
<rect width="58" height="58" rx="4" fill="#3077C6"/>
<path d="M2.58581 26.6095C2.53214 26.5216 2.48231 26.4018 2.43631 26.25C2.39031 26.0982 2.36731 25.9384 2.36731 25.7706C2.36731 25.4591 2.43247 25.2354 2.56281 25.0996C2.7008 24.9638 2.87713 24.8959 3.09179 24.8959H8.10569C8.15936 24.9837 8.20919 25.1036 8.25519 25.2554C8.30119 25.4072 8.32419 25.5669 8.32419 25.7347C8.32419 26.0463 8.25519 26.2699 8.11719 26.4058C7.98686 26.5416 7.81437 26.6095 7.5997 26.6095H6.32323V32.1457C6.2389 32.1697 6.10473 32.1936 5.92074 32.2176C5.74441 32.2416 5.56808 32.2536 5.39175 32.2536C5.21542 32.2536 5.05825 32.2376 4.92026 32.2056C4.78993 32.1817 4.67876 32.1337 4.58676 32.0618C4.49477 31.9899 4.42577 31.8901 4.37977 31.7622C4.33377 31.6344 4.31077 31.4667 4.31077 31.2589V26.6095H2.58581Z" fill="white"/>
<path d="M10.6428 32.1817C10.5662 32.2056 10.4435 32.2296 10.2748 32.2536C10.1138 32.2775 9.94518 32.2895 9.76885 32.2895C9.60018 32.2895 9.44685 32.2775 9.30886 32.2536C9.17853 32.2296 9.06736 32.1817 8.97536 32.1098C8.88336 32.0379 8.81053 31.942 8.75687 31.8222C8.71087 31.6943 8.68787 31.5306 8.68787 31.3308V27.7359C8.68787 27.5521 8.71853 27.3964 8.77987 27.2685C8.84887 27.1327 8.9447 27.0129 9.06736 26.909C9.19002 26.8052 9.33952 26.7133 9.51585 26.6334C9.69985 26.5456 9.89534 26.4697 10.1023 26.4058C10.3093 26.3418 10.524 26.2939 10.7463 26.262C10.9687 26.222 11.191 26.202 11.4133 26.202C11.7813 26.202 12.0726 26.2779 12.2873 26.4297C12.502 26.5735 12.6093 26.8132 12.6093 27.1487C12.6093 27.2606 12.594 27.3724 12.5633 27.4842C12.5326 27.5881 12.4943 27.684 12.4483 27.7718C12.2873 27.7718 12.1225 27.7798 11.9538 27.7958C11.7851 27.8118 11.6203 27.8357 11.4593 27.8677C11.2983 27.8997 11.145 27.9356 10.9993 27.9756C10.8613 28.0075 10.7425 28.0475 10.6428 28.0954V32.1817Z" fill="white"/>
<path d="M13.3698 24.7521C13.3698 24.4485 13.4656 24.1929 13.6573 23.9851C13.8566 23.7774 14.1173 23.6736 14.4393 23.6736C14.7613 23.6736 15.0181 23.7774 15.2098 23.9851C15.4091 24.1929 15.5088 24.4485 15.5088 24.7521C15.5088 25.0556 15.4091 25.3113 15.2098 25.519C15.0181 25.7267 14.7613 25.8306 14.4393 25.8306C14.1173 25.8306 13.8566 25.7267 13.6573 25.519C13.4656 25.3113 13.3698 25.0556 13.3698 24.7521ZM15.4168 32.1817C15.3324 32.1976 15.2059 32.2176 15.0373 32.2416C14.8763 32.2735 14.7114 32.2895 14.5428 32.2895C14.3741 32.2895 14.2208 32.2775 14.0828 32.2536C13.9525 32.2296 13.8413 32.1817 13.7493 32.1098C13.6573 32.0379 13.5845 31.942 13.5308 31.8222C13.4848 31.6943 13.4618 31.5306 13.4618 31.3308V26.4537C13.5461 26.4377 13.6688 26.4177 13.8298 26.3938C13.9985 26.3618 14.1671 26.3458 14.3358 26.3458C14.5044 26.3458 14.6539 26.3578 14.7843 26.3818C14.9223 26.4058 15.0373 26.4537 15.1293 26.5256C15.2213 26.5975 15.2903 26.6973 15.3363 26.8252C15.3899 26.945 15.4168 27.1048 15.4168 27.3045V32.1817Z" fill="white"/>
<path d="M19.2258 26.1901C19.6858 26.1901 20.1113 26.254 20.5023 26.3818C20.9009 26.5016 21.2421 26.6894 21.5257 26.945C21.8094 27.2006 22.0317 27.5242 22.1927 27.9156C22.3537 28.2991 22.4342 28.7585 22.4342 29.2937C22.4342 29.805 22.3652 30.2524 22.2272 30.6358C22.0892 31.0193 21.8937 31.3428 21.6407 31.6065C21.3877 31.8621 21.0811 32.0538 20.7208 32.1817C20.3681 32.3095 19.9733 32.3734 19.5363 32.3734C19.2066 32.3734 18.9 32.3215 18.6163 32.2176V34.2068C18.5396 34.2308 18.417 34.2547 18.2483 34.2787C18.0796 34.3107 17.9071 34.3266 17.7308 34.3266C17.5622 34.3266 17.4088 34.3147 17.2708 34.2907C17.1405 34.2667 17.0293 34.2188 16.9373 34.1469C16.8453 34.075 16.7763 33.9751 16.7303 33.8473C16.6843 33.7275 16.6613 33.5677 16.6613 33.368V27.6161C16.6613 27.4004 16.7035 27.2246 16.7878 27.0888C16.8798 26.953 17.0025 26.8292 17.1558 26.7173C17.3935 26.5575 17.6887 26.4297 18.0413 26.3339C18.394 26.238 18.7888 26.1901 19.2258 26.1901ZM19.2488 30.7676C20.0384 30.7676 20.4333 30.2763 20.4333 29.2937C20.4333 28.7824 20.3336 28.403 20.1343 28.1553C19.9426 27.9076 19.6628 27.7838 19.2948 27.7838C19.1491 27.7838 19.0188 27.8038 18.9038 27.8437C18.7888 27.8757 18.6891 27.9156 18.6048 27.9636V30.5999C18.6968 30.6478 18.7965 30.6877 18.9038 30.7197C19.0111 30.7517 19.1261 30.7676 19.2488 30.7676Z" fill="white"/>
<path d="M29.7706 32.1457C29.6863 32.1697 29.5521 32.1936 29.3681 32.2176C29.1918 32.2416 29.0155 32.2536 28.8391 32.2536C28.6628 32.2536 28.5056 32.2376 28.3677 32.2056C28.2373 32.1817 28.1262 32.1337 28.0342 32.0618C27.9422 31.9899 27.8732 31.8901 27.8272 31.7622C27.7812 31.6344 27.7582 31.4667 27.7582 31.2589V29.3896H25.5502V32.1457C25.4659 32.1697 25.3317 32.1936 25.1477 32.2176C24.9714 32.2416 24.7951 32.2536 24.6187 32.2536C24.4424 32.2536 24.2852 32.2376 24.1472 32.2056C24.0169 32.1817 23.9057 32.1337 23.8137 32.0618C23.7217 31.9899 23.6527 31.8901 23.6067 31.7622C23.5608 31.6344 23.5378 31.4667 23.5378 31.2589V24.9318C23.6221 24.9158 23.7562 24.8959 23.9402 24.8719C24.1242 24.8399 24.3006 24.824 24.4692 24.824C24.6456 24.824 24.7989 24.8399 24.9292 24.8719C25.0672 24.8959 25.1822 24.9438 25.2742 25.0157C25.3662 25.0876 25.4352 25.1875 25.4812 25.3153C25.5272 25.4431 25.5502 25.6109 25.5502 25.8186V27.7359H27.7582V24.9318C27.8425 24.9158 27.9767 24.8959 28.1607 24.8719C28.3447 24.8399 28.521 24.824 28.6896 24.824C28.866 24.824 29.0193 24.8399 29.1496 24.8719C29.2876 24.8959 29.4026 24.9438 29.4946 25.0157C29.5866 25.0876 29.6556 25.1875 29.7016 25.3153C29.7476 25.4431 29.7706 25.6109 29.7706 25.8186V32.1457Z" fill="white"/>
<path d="M36.899 29.2817C36.899 29.777 36.8262 30.2204 36.6805 30.6119C36.5349 30.9953 36.3279 31.3189 36.0596 31.5825C35.7989 31.8461 35.4846 32.0458 35.1166 32.1817C34.7486 32.3175 34.3384 32.3854 33.8861 32.3854C33.4338 32.3854 33.0236 32.3135 32.6556 32.1697C32.2876 32.0259 31.9695 31.8222 31.7011 31.5585C31.4405 31.2869 31.2373 30.9594 31.0917 30.5759C30.946 30.1924 30.8732 29.761 30.8732 29.2817C30.8732 28.8104 30.946 28.383 31.0917 27.9995C31.2373 27.6161 31.4405 27.2925 31.7011 27.0289C31.9695 26.7573 32.2876 26.5496 32.6556 26.4058C33.0236 26.262 33.4338 26.1901 33.8861 26.1901C34.3384 26.1901 34.7486 26.2659 35.1166 26.4177C35.4846 26.5615 35.7989 26.7692 36.0596 27.0409C36.3279 27.3045 36.5349 27.628 36.6805 28.0115C36.8262 28.395 36.899 28.8184 36.899 29.2817ZM32.8741 29.2817C32.8741 29.769 32.9623 30.1445 33.1386 30.4081C33.3226 30.6638 33.5756 30.7916 33.8976 30.7916C34.2196 30.7916 34.4649 30.6598 34.6336 30.3962C34.8099 30.1325 34.8981 29.761 34.8981 29.2817C34.8981 28.8024 34.8099 28.4349 34.6336 28.1793C34.4573 27.9156 34.2081 27.7838 33.8861 27.7838C33.5641 27.7838 33.3149 27.9156 33.1386 28.1793C32.9623 28.4349 32.8741 28.8024 32.8741 29.2817Z" fill="white"/>
<path d="M37.8528 26.4537C37.9295 26.4297 38.0483 26.4058 38.2093 26.3818C38.378 26.3578 38.5505 26.3458 38.7268 26.3458C38.8954 26.3458 39.0449 26.3578 39.1753 26.3818C39.3133 26.4058 39.4283 26.4537 39.5203 26.5256C39.6123 26.5975 39.6813 26.6973 39.7273 26.8252C39.7809 26.945 39.8078 27.1048 39.8078 27.3045V29.8809C39.8078 30.2084 39.8844 30.4441 40.0378 30.5879C40.1911 30.7237 40.4134 30.7916 40.7047 30.7916C40.8811 30.7916 41.0229 30.7756 41.1302 30.7437C41.2452 30.7117 41.3334 30.6798 41.3947 30.6478V26.4537C41.4714 26.4297 41.5902 26.4058 41.7512 26.3818C41.9199 26.3578 42.0924 26.3458 42.2687 26.3458C42.4374 26.3458 42.5869 26.3578 42.7172 26.3818C42.8552 26.4058 42.9702 26.4537 43.0622 26.5256C43.1542 26.5975 43.2232 26.6973 43.2692 26.8252C43.3229 26.945 43.3497 27.1048 43.3497 27.3045V30.9474C43.3497 31.3468 43.1887 31.6464 42.8667 31.8461C42.5984 32.0219 42.2764 32.1537 41.9007 32.2416C41.5327 32.3374 41.1302 32.3854 40.6932 32.3854C40.2793 32.3854 39.8959 32.3374 39.5433 32.2416C39.1983 32.1457 38.8993 31.9979 38.6463 31.7982C38.3933 31.5985 38.1978 31.3428 38.0598 31.0313C37.9218 30.7117 37.8528 30.3283 37.8528 29.8809V26.4537Z" fill="white"/>
<path d="M49.2609 30.4561C49.2609 31.0632 49.0424 31.5386 48.6054 31.8821C48.1684 32.2256 47.5245 32.3974 46.6735 32.3974C46.3515 32.3974 46.0525 32.3734 45.7765 32.3255C45.5005 32.2775 45.2628 32.2056 45.0635 32.1098C44.8719 32.0059 44.7185 31.8781 44.6035 31.7263C44.4962 31.5745 44.4425 31.3948 44.4425 31.187C44.4425 30.9953 44.4809 30.8355 44.5575 30.7077C44.6342 30.5719 44.7262 30.4601 44.8335 30.3722C45.0558 30.5 45.3088 30.6158 45.5925 30.7197C45.8838 30.8156 46.2173 30.8635 46.593 30.8635C46.8306 30.8635 47.0108 30.8276 47.1335 30.7557C47.2638 30.6838 47.329 30.5879 47.329 30.4681C47.329 30.3562 47.283 30.2683 47.191 30.2044C47.099 30.1405 46.9456 30.0886 46.731 30.0486L46.386 29.9767C45.719 29.8409 45.2207 29.6292 44.891 29.3416C44.569 29.0461 44.408 28.6266 44.408 28.0834C44.408 27.7878 44.4694 27.5202 44.592 27.2805C44.7147 27.0409 44.8872 26.8411 45.1095 26.6814C45.3318 26.5216 45.5963 26.3978 45.903 26.3099C46.2173 26.222 46.5623 26.1781 46.938 26.1781C47.2216 26.1781 47.4861 26.202 47.7315 26.25C47.9845 26.2899 48.203 26.3538 48.3869 26.4417C48.5709 26.5296 48.7166 26.6454 48.8239 26.7892C48.9313 26.925 48.9849 27.0888 48.9849 27.2805C48.9849 27.4643 48.9504 27.624 48.8814 27.7599C48.8201 27.8877 48.7396 27.9955 48.6399 28.0834C48.5786 28.0435 48.4866 28.0035 48.3639 27.9636C48.2413 27.9156 48.1071 27.8757 47.9615 27.8437C47.8158 27.8038 47.6663 27.7718 47.513 27.7479C47.3673 27.7239 47.2331 27.7119 47.1105 27.7119C46.8575 27.7119 46.662 27.7439 46.524 27.8078C46.386 27.8637 46.317 27.9556 46.317 28.0834C46.317 28.1713 46.3553 28.2432 46.432 28.2991C46.5087 28.355 46.6543 28.4069 46.869 28.4549L47.2255 28.5388C47.9615 28.7145 48.4828 28.9582 48.7894 29.2697C49.1038 29.5733 49.2609 29.9688 49.2609 30.4561Z" fill="white"/>
<path d="M53.2177 32.3854C52.7653 32.3854 52.3437 32.3215 51.9527 32.1936C51.5694 32.0578 51.232 31.8581 50.9407 31.5945C50.657 31.3308 50.4309 30.9993 50.2622 30.5999C50.1012 30.2004 50.0207 29.7331 50.0207 29.1978C50.0207 28.6706 50.1012 28.2192 50.2622 27.8437C50.4309 27.4603 50.6494 27.1487 50.9177 26.909C51.186 26.6614 51.4927 26.4816 51.8377 26.3698C52.1827 26.25 52.5353 26.1901 52.8957 26.1901C53.302 26.1901 53.67 26.254 53.9996 26.3818C54.337 26.5096 54.6245 26.6854 54.8621 26.909C55.1075 27.1327 55.2953 27.4004 55.4256 27.7119C55.5636 28.0235 55.6326 28.363 55.6326 28.7305C55.6326 29.0021 55.5598 29.2098 55.4141 29.3536C55.2684 29.4974 55.0653 29.5893 54.8046 29.6292L51.9642 30.0726C52.0485 30.3362 52.221 30.536 52.4817 30.6718C52.7423 30.7996 53.0413 30.8635 53.3787 30.8635C53.693 30.8635 53.9881 30.8236 54.2641 30.7437C54.5478 30.6558 54.7778 30.5559 54.9541 30.4441C55.0768 30.524 55.1803 30.6358 55.2646 30.7796C55.3489 30.9234 55.3911 31.0752 55.3911 31.235C55.3911 31.5945 55.2301 31.8621 54.9081 32.0379C54.6628 32.1737 54.3868 32.2655 54.0801 32.3135C53.7735 32.3614 53.486 32.3854 53.2177 32.3854ZM52.8957 27.676C52.7117 27.676 52.5507 27.7079 52.4127 27.7718C52.2823 27.8357 52.175 27.9196 52.0907 28.0235C52.0064 28.1193 51.9412 28.2312 51.8952 28.359C51.8568 28.4788 51.8339 28.6027 51.8262 28.7305L53.7926 28.395C53.7696 28.2352 53.6853 28.0754 53.5396 27.9156C53.394 27.7559 53.1793 27.676 52.8957 27.676Z" fill="white"/>
</svg>
